Coordinates
version=1
nRows=14
nColumns=36
inDegrees=yes

Units are S.I. units (second, meters, Newtons, ...)
If the header above contains a line with 'inDegrees', this indicates whether rotational values are in degrees (yes) or radians (no).

endheader
time	pelvis_tilt	pelvis_list	pelvis_rotation	pelvis_tx	pelvis_ty	pelvis_tz	hip_flexion_r	hip_adduction_r	hip_rotation_r	knee_angle_r	knee_angle_r_beta	ankle_angle_r	subtalar_angle_r	mtp_angle_r	hip_flexion_l	hip_adduction_l	hip_rotation_l	knee_angle_l	knee_angle_l_beta	ankle_angle_l	subtalar_angle_l	mtp_angle_l	lumbar_extension	lumbar_bending	lumbar_rotation	arm_flex_r	arm_add_r	arm_rot_r	elbow_flex_r	pro_sup_r	arm_flex_l	arm_add_l	arm_rot_l	elbow_flex_l	pro_sup_l
      2.68333330	    -16.77685435	     -1.20880108	      0.24107981	     -0.21685367	      0.87297110	      0.09680727	     52.57374025	     -2.40002496	     -0.55180268	     51.99391882	      0.90746507	     21.51276177	    -14.14845581	     -7.49999987	     54.03781449	     -6.12308801	     -0.40599598	     53.21280600	      0.92873867	     18.04252756	    -13.56684679	     -7.49999987	    -14.00579043	      1.46973043	      0.77889355	     60.52351445	     13.79457757	     62.84463212	    123.51765870	     95.06454096	     73.58564632	     12.92991405	     66.96349647	    123.12904442	     74.54755229
      2.70000000	    -16.22486904	     -1.27584056	      0.51228060	     -0.20237024	      0.89139605	      0.09818830	     49.34440960	     -2.35614850	     -0.77449010	     48.15872797	      0.84052837	     20.69227467	    -13.40730022	     -7.49999987	     51.25057439	     -6.00895247	     -0.41787014	     50.19656583	      0.87609535	     16.83263980	    -12.85683574	     -7.49999987	    -12.33834090	      1.71227423	      1.25145292	     59.00372775	     13.54600357	     63.60846472	    123.41898518	     94.16522168	     72.05784582	     13.26680344	     67.84024573	    123.12622191	     74.23058113
      2.71666670	    -15.23336910	     -1.38038296	      0.58226025	     -0.19587895	      0.89314694	      0.09751280	     46.07678326	     -2.25540407	     -1.15880082	     45.34345919	      0.79139266	     19.90769507	    -13.07882969	     -7.49999987	     48.30831113	     -6.05994318	     -0.45242861	     47.70095795	      0.83253877	     16.14253803	    -12.87426815	     -7.49999987	    -11.32173305	      1.79315816	      1.51271280	     58.05447127	     13.42643822	     64.04521537	    124.04448520	     94.48716287	     71.60734809	     13.58580875	     67.69653544	    122.95104659	     74.00420252
      2.73333330	    -14.90949888	     -1.44708440	      0.64067119	     -0.18836295	      0.90273748	      0.09677513	     43.43814385	     -2.22984296	     -1.57989994	     42.35093004	      0.73916317	     19.98796390	    -12.01705582	     -7.49999987	     46.01477192	     -6.11030557	     -0.71340196	     45.15071493	      0.78802864	     15.95556843	    -12.30961358	     -7.49999987	     -9.34985323	      2.01790520	      1.54943400	     56.25903256	     13.31764653	     64.18437053	    124.13208830	     92.26152581	     70.40264983	     13.48094683	     67.83480602	    123.07121249	     73.34045380
      2.75000000	    -14.41438163	     -1.62410498	      0.65844554	     -0.18322229	      0.91588208	      0.09650823	     40.67319305	     -2.17139938	     -2.44393052	     39.12983770	      0.68294450	     19.21216675	    -11.51713829	     -7.49999987	     43.45329750	     -6.20087841	     -1.07835359	     42.28544393	      0.73802022	     15.47505871	    -12.12612323	     -7.49999987	     -7.76086933	      2.36501724	      1.67342488	     54.64043581	     13.31797970	     64.56280104	    124.49302448	     92.45680223	     69.53629236	     13.54094122	     68.12900905	    123.02583952	     73.16202917
      2.76666670	    -13.32078695	     -1.91890581	      0.61690503	     -0.17600728	      0.92470081	      0.09522103	     37.31681480	     -1.97725029	     -3.49352212	     35.57846547	      0.62096137	     18.01841302	    -10.89682338	     -7.49999987	     40.37587804	     -6.41108050	     -1.32419307	     39.51731657	      0.68970729	     15.03096890	    -11.76815387	     -7.49999987	     -7.17681085	      2.85024887	      1.87151099	     53.93783123	     13.26103961	     64.51272658	    125.00842291	     91.93124601	     69.21280990	     13.93691308	     68.17129029	    122.94332512	     72.92160287
      2.78333330	    -12.31889361	     -2.19909697	      0.50541649	     -0.17151516	      0.93836735	      0.09568847	     33.93758897	     -1.69730638	     -4.61961118	     31.76374665	      0.55438196	     16.75991830	     -9.94943740	     -7.49999987	     37.40887640	     -6.65680440	     -1.72889729	     36.66436676	      0.63991392	     14.30018120	    -11.68188480	     -7.49999987	     -6.51533203	      3.21264038	      2.08220694	     52.42749908	     12.89377446	     63.88048507	    125.31754567	     94.12102193	     68.51452229	     13.99129097	     68.93128190	    122.90922330	     68.08565054
      2.80000000	    -11.80926293	     -2.43198086	      0.22116636	     -0.16583486	      0.94633979	      0.09625475	     31.19873324	     -1.29903616	     -5.55829845	     28.15234499	      0.49135111	     15.69185738	     -8.65028917	     -7.49999987	     35.09309986	     -7.01775128	     -2.37025579	     34.07955096	      0.59480037	     13.59825438	    -11.09975543	     -7.49999987	     -5.33916253	      3.58206258	      2.16819683	     51.43762745	     12.85258707	     63.70678968	    125.49910618	     93.73107356	     67.80862183	     13.64941106	     69.09508982	    122.93852944	     68.08790620
      2.81666670	     -9.86600332	     -2.61529411	      0.29537709	     -0.15709664	      0.96196094	      0.09597942	     26.52107833	     -1.00569163	     -6.70833437	     23.99190960	      0.41873782	     14.11336902	     -6.94353051	     -7.49999987	     30.90855207	     -7.23061858	     -3.30853892	     30.85143144	      0.53845906	     11.87362255	    -10.64947346	     -7.49999987	     -6.05734454	      3.80274454	      2.03883817	     50.74458478	     12.61289583	     62.82375692	    125.22649014	     92.56598708	     67.43512011	     13.46830860	     69.19194566	    122.92356335	     67.46465533
      2.83333330	     -8.69771931	     -2.60344425	      0.38659311	     -0.15212637	      0.97154874	      0.09712151	     22.86832171	     -0.87481378	     -7.85353625	     20.30428668	      0.35437665	     12.76213508	     -5.21811279	     -7.49999987	     27.80199967	     -7.31805672	     -4.49137775	     27.99289917	      0.48856826	     10.02981001	    -10.18289704	     -7.49999987	     -6.07511662	      3.66038425	      1.99339178	     49.88422370	     12.57146996	     62.36414238	    125.30049055	     92.49660472	     66.89755805	     13.71102719	     69.95040414	    123.21921916	     67.06912685
      2.85000000	     -7.43675855	     -2.50374779	      0.71272109	     -0.14353529	      0.97739671	      0.09780799	     19.18055478	     -0.83350328	     -9.65438097	     16.59881605	      0.28970399	     10.97754961	     -3.64826883	     -7.49999987	     24.44400148	     -7.32637902	     -6.18922020	     24.99717517	      0.43628301	      8.34838285	     -9.43660553	     -7.49999987	     -6.07454505	      3.37787482	      2.01482537	     49.21674247	     12.40717817	     61.85922253	    125.46538274	     92.53823381	     66.73768689	     13.84996266	     70.53110498	    123.44020896	     66.69176658
      2.86666670	     -6.49234350	     -2.36549696	      0.76084846	     -0.13976231	      0.98094467	      0.09753819	     16.45859454	     -0.78710797	    -11.14672433	     13.96935068	      0.24381116	      9.91954837	     -2.05284470	     -7.49999987	     21.72538818	     -7.26420324	     -7.68694002	     22.58917149	      0.39425542	      7.36492326	     -8.64648331	     -7.49999987	     -5.98958686	      3.06517422	      2.15522483	     48.97833633	     12.09534918	     60.51032749	    125.09911532	     92.26179593	     67.04193756	     14.11834305	     70.72068787	    123.45558776	     66.09938660
      2.88333330	     -5.47505257	     -2.14386281	      0.52148500	     -0.13798729	      0.98953173	      0.09812788	     13.88158919	     -0.77609659	    -12.42907497	     11.59519892	      0.20237440	      8.63980940	     -0.68517383	     -7.49999987	     19.08361328	     -7.12183161	     -9.10740488	     20.39248847	      0.35591607	      6.28576987	     -7.51383501	     -7.49999987	     -5.94377214	      2.68815886	      2.24826509	     49.10414601	     11.58420926	     59.25298598	    124.46234573	     91.92133651	     66.97643777	     13.90228645	     70.92980910	    123.30569063	     65.67532026
      2.90000000	     -4.72970062	     -1.89158848	      0.22156196	     -0.13387157	      0.99239090	      0.09861539	     11.98594639	     -0.81607382	    -13.47080280	      9.82316834	      0.17144663	      7.65555955	      0.48759039	     -7.49999987	     16.89327973	     -6.89158704	    -10.54561400	     18.41126946	      0.32133727	      5.39957081	     -6.65807202	     -7.49999987	     -5.53450809	      2.36769936	      2.41074526	     49.08241642	     10.98564997	     57.98018348	    123.78626196	     91.25430613	     66.79831094	     13.51394664	     71.04987264	    123.43041605	     65.24520334
